<svg width="65" height="65" viewBox="0 0 65 65" fill="none" xmlns="http://www.w3.org/2000/svg">
<g filter="url(#filter0_f_5_56)">
<path d="M-5.85905 50.734C1.63904 53.3968 10.2571 48.404 13.3899 39.5823C16.5228 30.7606 12.984 21.4506 5.48592 18.7878C-2.01217 16.125 -10.6302 21.1178 -13.7631 29.9395C-16.8959 38.7612 -13.3571 48.0712 -5.85905 50.734Z" fill="#FFE432"/>
</g>
<g filter="url(#filter1_f_5_56)">
<path d="M27.4329 21.6486C37.7339 21.6486 46.0845 13.1144 46.0845 2.58691C46.0845 -7.94058 37.7339 -16.4748 27.4329 -16.4748C17.1319 -16.4748 8.78131 -7.94058 8.78131 2.58691C8.78131 13.1144 17.1319 21.6486 27.4329 21.6486Z" fill="#FC413D"/>
</g>
<g filter="url(#filter2_f_5_56)">
<path d="M20.1842 82.6084C30.9373 82.0827 39.1023 70.364 38.4213 56.4338C37.7404 42.5037 28.4713 31.6372 17.7182 32.1628C6.96513 32.6885 -1.19992 44.4072 -0.518949 58.3374C0.16202 72.2675 9.43114 83.134 20.1842 82.6084Z" fill="#00B95C"/>
</g>
<g filter="url(#filter3_f_5_56)">
<path d="M20.1842 82.6084C30.9373 82.0827 39.1023 70.364 38.4213 56.4338C37.7404 42.5037 28.4713 31.6372 17.7182 32.1628C6.96513 32.6885 -1.19992 44.4072 -0.518949 58.3374C0.16202 72.2675 9.43114 83.134 20.1842 82.6084Z" fill="#00B95C"/>
</g>
<g filter="url(#filter4_f_5_56)">
<path d="M30.9538 74.1811C39.9685 68.6962 42.3814 56.2045 36.343 46.2801C30.3047 36.3557 18.1017 32.7568 9.08698 38.2417C0.0722337 43.7266 -2.3406 56.2183 3.69775 66.1427C9.73611 76.0671 21.9391 79.666 30.9538 74.1811Z" fill="#00B95C"/>
</g>
<g filter="url(#filter5_f_5_56)">
<path d="M67.391 42.9935C77.5234 42.9935 85.7373 35.0838 85.7373 25.3267C85.7373 15.5696 77.5234 7.65991 67.391 7.65991C57.2586 7.65991 49.0447 15.5696 49.0447 25.3267C49.0447 35.0838 57.2586 42.9935 67.391 42.9935Z" fill="#3186FF"/>
</g>
<g filter="url(#filter6_f_5_56)">
<path d="M-13.0647 40.9439C-3.73529 48.0385 9.894 45.8127 17.3772 35.9723C24.8603 26.132 23.3637 12.4035 14.0342 5.3088C4.70483 -1.78586 -8.92446 0.439964 -16.4076 10.2803C-23.8908 20.1207 -22.3941 33.8492 -13.0647 40.9439Z" fill="#FBBC04"/>
</g>
<g filter="url(#filter7_f_5_56)">
<path d="M34.7392 51.4304C45.875 59.0864 60.6357 56.9536 67.7082 46.6665C74.7808 36.3794 71.4869 21.8336 60.3512 14.1775C49.2155 6.52148 34.4548 8.65433 27.3822 18.9414C20.3097 29.2285 23.6035 43.7743 34.7392 51.4304Z" fill="#3186FF"/>
</g>
<g filter="url(#filter8_f_5_56)">
<path d="M54.9838 -2.33624C57.8168 1.51559 54.1765 9.00478 46.8529 14.3913C39.5293 19.7779 31.2957 21.022 28.4627 17.1702C25.6296 13.3184 29.27 5.8292 36.5935 0.442646C43.9171 -4.94391 52.1507 -6.18806 54.9838 -2.33624Z" fill="#749BFF"/>
</g>
<g filter="url(#filter9_f_5_56)">
<path d="M31.7269 16.1039C43.0528 5.5984 46.9402 -8.62549 40.4097 -15.666C33.8791 -22.7065 19.4036 -19.8975 8.07769 -9.392C-3.24822 1.11355 -7.13563 15.3374 -0.605083 22.3779C5.92547 29.4185 20.401 26.6095 31.7269 16.1039Z" fill="#FC413D"/>
</g>
<g filter="url(#filter10_f_5_56)">
<path d="M8.50992 53.8383C15.2415 58.6562 22.9698 59.3884 25.7716 55.4737C28.5735 51.5589 25.3878 44.4798 18.6563 39.6619C11.9247 34.844 4.1964 34.1118 1.39456 38.0265C-1.40728 41.9413 1.77837 49.0204 8.50992 53.8383Z" fill="#FFEE48"/>
</g>
<defs>
<filter id="filter0_f_5_56" x="-19.8236" y="13.1523" width="39.274" height="43.2172" filterUnits="userSpaceOnUse" color-interpolation-filters="sRGB">
<feFlood flood-opacity="0" result="BackgroundImageFix"/>
<feBlend mode="normal" in="SourceGraphic" in2="BackgroundImageFix" result="shape"/>
<feGaussianBlur stdDeviation="2.45965" result="effect1_foregroundBlur_5_56"/>
</filter>
<filter id="filter1_f_5_56" x="-15.0009" y="-40.257" width="84.8676" height="85.6878" filterUnits="userSpaceOnUse" color-interpolation-filters="sRGB">
<feFlood flood-opacity="0" result="BackgroundImageFix"/>
<feBlend mode="normal" in="SourceGraphic" in2="BackgroundImageFix" result="shape"/>
<feGaussianBlur stdDeviation="11.8911" result="effect1_foregroundBlur_5_56"/>
</filter>
<filter id="filter2_f_5_56" x="-20.7758" y="11.9273" width="79.4541" height="90.9165" filterUnits="userSpaceOnUse" color-interpolation-filters="sRGB">
<feFlood flood-opacity="0" result="BackgroundImageFix"/>
<feBlend mode="normal" in="SourceGraphic" in2="BackgroundImageFix" result="shape"/>
<feGaussianBlur stdDeviation="10.1086" result="effect1_foregroundBlur_5_56"/>
</filter>
<filter id="filter3_f_5_56" x="-20.7758" y="11.9273" width="79.4541" height="90.9165" filterUnits="userSpaceOnUse" color-interpolation-filters="sRGB">
<feFlood flood-opacity="0" result="BackgroundImageFix"/>
<feBlend mode="normal" in="SourceGraphic" in2="BackgroundImageFix" result="shape"/>
<feGaussianBlur stdDeviation="10.1086" result="effect1_foregroundBlur_5_56"/>
</filter>
<filter id="filter4_f_5_56" x="-19.8449" y="15.459" width="79.7306" height="81.5049" filterUnits="userSpaceOnUse" color-interpolation-filters="sRGB">
<feFlood flood-opacity="0" result="BackgroundImageFix"/>
<feBlend mode="normal" in="SourceGraphic" in2="BackgroundImageFix" result="shape"/>
<feGaussianBlur stdDeviation="10.1086" result="effect1_foregroundBlur_5_56"/>
</filter>
<filter id="filter5_f_5_56" x="29.8324" y="-11.5523" width="75.1171" height="73.7581" filterUnits="userSpaceOnUse" color-interpolation-filters="sRGB">
<feFlood flood-opacity="0" result="BackgroundImageFix"/>
<feBlend mode="normal" in="SourceGraphic" in2="BackgroundImageFix" result="shape"/>
<feGaussianBlur stdDeviation="9.60613" result="effect1_foregroundBlur_5_56"/>
</filter>
<filter id="filter6_f_5_56" x="-38.5829" y="-16.2526" width="78.1353" height="78.7579" filterUnits="userSpaceOnUse" color-interpolation-filters="sRGB">
<feFlood flood-opacity="0" result="BackgroundImageFix"/>
<feBlend mode="normal" in="SourceGraphic" in2="BackgroundImageFix" result="shape"/>
<feGaussianBlur stdDeviation="8.70591" result="effect1_foregroundBlur_5_56"/>
</filter>
<filter id="filter7_f_5_56" x="8.10673" y="-5.96575" width="78.877" height="77.5394" filterUnits="userSpaceOnUse" color-interpolation-filters="sRGB">
<feFlood flood-opacity="0" result="BackgroundImageFix"/>
<feBlend mode="normal" in="SourceGraphic" in2="BackgroundImageFix" result="shape"/>
<feGaussianBlur stdDeviation="7.77473" result="effect1_foregroundBlur_5_56"/>
</filter>
<filter id="filter8_f_5_56" x="13.5874" y="-18.4881" width="56.2717" height="51.8102" filterUnits="userSpaceOnUse" color-interpolation-filters="sRGB">
<feFlood flood-opacity="0" result="BackgroundImageFix"/>
<feBlend mode="normal" in="SourceGraphic" in2="BackgroundImageFix" result="shape"/>
<feGaussianBlur stdDeviation="6.95694" result="effect1_foregroundBlur_5_56"/>
</filter>
<filter id="filter9_f_5_56" x="-15.5259" y="-31.297" width="70.8563" height="69.3059" filterUnits="userSpaceOnUse" color-interpolation-filters="sRGB">
<feFlood flood-opacity="0" result="BackgroundImageFix"/>
<feBlend mode="normal" in="SourceGraphic" in2="BackgroundImageFix" result="shape"/>
<feGaussianBlur stdDeviation="5.87598" result="effect1_foregroundBlur_5_56"/>
</filter>
<filter id="filter10_f_5_56" x="-14.1676" y="20.9644" width="55.5014" height="51.5714" filterUnits="userSpaceOnUse" color-interpolation-filters="sRGB">
<feFlood flood-opacity="0" result="BackgroundImageFix"/>
<feBlend mode="normal" in="SourceGraphic" in2="BackgroundImageFix" result="shape"/>
<feGaussianBlur stdDeviation="7.27253" result="effect1_foregroundBlur_5_56"/>
</filter>
</defs>
</svg>
